<svg width="64" height="64" viewBox="0 0 64 64" fill="none" xmlns="http://www.w3.org/2000/svg">
<g clip-path="url(#clip0_69_4057)">
<path fill-rule="evenodd" clip-rule="evenodd" d="M23.5 15.2787H35.1925C41.4277 15.2787 46.5 20.351 46.5 26.586V26.9712C46.5 33.2063 41.4277 38.2786 35.1925 38.2786H27.75V48.7212H23.5V15.2787ZM27.75 19.5287V34.0287H35.1925C39.0838 34.0287 42.25 30.8625 42.25 26.9714V26.5861C42.25 22.6949 39.0838 19.5287 35.1925 19.5287H27.75Z" fill="black"/>
<path d="M54.6275 9.3725C48.5834 3.3285 40.5475 0 32 0C23.4525 0 15.4166 3.3285 9.3725 9.3725C3.32863 15.4166 0 23.4526 0 32C0 40.5474 3.32863 48.5834 9.37263 54.6274C15.4166 60.6714 23.4525 64 32 64C40.5475 64 48.5834 60.6715 54.6275 54.6275C60.6714 48.5834 64 40.5474 64 32C64 23.4526 60.6714 15.4166 54.6275 9.3725ZM51.9759 51.9759C46.64 57.3115 39.5457 60.25 32 60.25C24.4541 60.25 17.36 57.3115 12.0243 51.9757C6.6885 46.64 3.75 39.5457 3.75 32C3.75 24.4543 6.6885 17.36 12.0243 12.0241C17.36 6.6885 24.4541 3.75 32 3.75C39.5457 3.75 46.64 6.6885 51.9759 12.0241C57.3115 17.36 60.25 24.4543 60.25 32C60.25 39.5457 57.3115 46.64 51.9759 51.9759Z" fill="black"/>
<path d="M53.9204 10.0796C48.0651 4.22448 40.2804 1 32 1C23.7196 1 15.9349 4.22448 10.0796 10.0796C4.22461 15.9349 1 23.7197 1 32C1 40.2803 4.22461 48.0651 10.0797 53.9203C15.9349 59.7754 23.7196 63 32 63C40.2804 63 48.0651 59.7755 53.9204 53.9204C59.7754 48.0651 63 40.2803 63 32C63 23.7197 59.7754 15.9349 53.9204 10.0796ZM51.3516 51.3516C46.1825 56.5205 39.3099 59.3672 32 59.3672C24.6899 59.3672 17.8175 56.5205 12.6485 51.3515C7.47948 46.1825 4.63281 39.3099 4.63281 32C4.63281 24.6901 7.47948 17.8175 12.6485 12.6484C17.8175 7.47948 24.6899 4.63281 32 4.63281C39.3099 4.63281 46.1825 7.47948 51.3516 12.6484C56.5205 17.8175 59.3672 24.6901 59.3672 32C59.3672 39.3099 56.5205 46.1825 51.3516 51.3516Z" fill="black"/>
</g>
<defs>
<clipPath id="clip0_69_4057">
<rect width="64" height="64" fill="white"/>
</clipPath>
</defs>
</svg>
