<svg width="64" height="64" viewBox="0 0 64 64" fill="none" xmlns="http://www.w3.org/2000/svg">
<path d="M62.125 10.25H37.125C36.0895 10.25 35.25 11.0895 35.25 12.125V30.25H1.875C0.8395 30.25 0 31.0895 0 32.125V62.125C0 63.1605 0.8395 64 1.875 64H62.125C63.1605 64 64 63.1605 64 62.125V12.125C64 11.0895 63.1605 10.25 62.125 10.25ZM39 14H60.25V30.25H39V14ZM3.75 34H35.25V37.75H3.75V34ZM3.75 41.5H25.25V60.25H3.75V41.5ZM29 41.5H35.25V60.25H29V41.5ZM39 60.25V34H60.25V60.25H39Z" fill="black"/>
<path d="M1.875 25H29.375C30.4105 25 31.25 24.1605 31.25 23.125V18.125C31.25 17.5776 31.0107 17.0576 30.5952 16.7014L22.5 9.76262V1.875C22.5 0.8395 21.6605 0 20.625 0H10.625C9.5895 0 8.75 0.8395 8.75 1.875V9.76262L0.65475 16.7014C0.23925 17.0576 0 17.5776 0 18.125V23.125C0 24.1605 0.8395 25 1.875 25ZM12.5 3.75H18.75V8.75H12.5V3.75ZM3.75 18.9874L11.3186 12.5H19.9314L27.5 18.9874V21.25H3.75V18.9874Z" fill="black"/>
<path d="M44.625 19C43.5895 19 42.75 19.8395 42.75 20.875V24.625C42.75 25.6605 43.5895 26.5 44.625 26.5C45.6605 26.5 46.5 25.6605 46.5 24.625V20.875C46.5 19.8395 45.6605 19 44.625 19Z" fill="black"/>
<path d="M44.625 37.75C43.5895 37.75 42.75 38.5895 42.75 39.625V43.375C42.75 44.4105 43.5895 45.25 44.625 45.25C45.6605 45.25 46.5 44.4105 46.5 43.375V39.625C46.5 38.5895 45.6605 37.75 44.625 37.75Z" fill="black"/>
<path d="M19.625 47.125C18.5895 47.125 17.75 47.9645 17.75 49V52.75C17.75 53.7855 18.5895 54.625 19.625 54.625C20.6605 54.625 21.5 53.7855 21.5 52.75V49C21.5 47.9645 20.6605 47.125 19.625 47.125Z" fill="black"/>
</svg>
