<svg width="17" height="20" viewBox="0 0 17 20" fill="none" xmlns="http://www.w3.org/2000/svg">
<path d="M6.87466 0.000396729H0.62497C0.279791 0.000396729 0 0.280188 0 0.625366V19.3744C0 19.7196 0.279791 19.9994 0.62497 19.9994H6.87466C7.21984 19.9994 7.49963 19.7196 7.49963 19.3744V0.625366C7.49963 0.280188 7.2198 0.000396729 6.87466 0.000396729ZM6.2497 18.7495H1.24994V16.8746H4.37479V15.6246H1.24994V13.7497H3.12485V12.4998H1.24994V10.6249H4.37479V9.37494H1.24994V7.50003H3.12485V6.25009H1.24994V4.37518H4.37479V3.12524H1.24994V1.25034H6.2497V18.7495Z" fill="#B17955"/>
<path d="M15.1867 15.8122L13.1243 17.8684V2.13165L15.1805 4.1878L16.0617 3.3066L12.9368 0.181749C12.6931 -0.060583 12.2994 -0.060583 12.0556 0.181749L8.93079 3.3066L9.81199 4.1878L11.8744 2.13165V17.8684L9.81824 15.8122L8.93704 16.6934L12.0619 19.8183C12.3057 20.0606 12.6993 20.0606 12.9431 19.8183L16.0679 16.6934L15.1867 15.8122Z" fill="#B17955"/>
</svg>
