<svg width="64" height="64" viewBox="0 0 64 64" fill="none" xmlns="http://www.w3.org/2000/svg">
<path d="M27.8039 31.2077H26.3017L27.7641 27.0227L31.96 33.9292L36.1559 27.0224L37.6201 31.2077H36.1165V33.7391H46.1502V31.2077H44.2011L37.5562 14.4168L31.96 24.225L26.3645 14.4168L19.7192 31.2077H17.7734V33.7391H27.8042V31.2077H27.8039Z" fill="black"/>
<path d="M58.4685 26.5072C58.4685 11.8671 46.6017 0 31.9613 0C17.3231 0 5.45412 11.8671 5.45412 26.5072C5.45025 29.9829 6.13201 33.4252 7.46038 36.637C8.78874 39.8488 10.7376 42.767 13.1954 45.2246C13.3972 45.4296 13.6379 45.5923 13.9035 45.703C14.169 45.8137 14.454 45.8702 14.7417 45.8693C15.9304 45.8693 16.8944 44.9024 16.8944 43.7166C16.8944 43.1131 16.6371 42.5611 16.2358 42.1568C14.1812 40.1017 12.552 37.6618 11.4413 34.9764C10.3306 32.2911 9.76019 29.4132 9.76277 26.5072C9.76277 14.269 19.7202 4.30829 31.9613 4.30829C44.2024 4.30829 54.1617 14.269 54.1617 26.5072C54.1617 32.6296 51.67 38.1798 47.6489 42.1977L28.9027 60.9443L31.9569 64L50.717 45.241C55.5073 40.4431 58.4689 33.8223 58.4689 26.5068" fill="black"/>
</svg>
