<svg width="32" height="32" viewBox="0 0 32 32" fill="none" xmlns="http://www.w3.org/2000/svg">
<path d="M26.791 2.99128V8.94477C26.791 9.56095 27.2911 10.061 27.9073 10.061C28.5235 10.061 29.0236 9.56095 29.0236 8.94477V2.99128C29.0236 2.37509 28.5235 1.875 27.9073 1.875C27.2911 1.875 26.791 2.37509 26.791 2.99128Z" fill="black"/>
<path d="M24.9298 7.0843H30.8832C31.4994 7.0843 31.9995 6.5842 31.9995 5.96802C31.9995 5.35183 31.4994 4.85174 30.8832 4.85174H24.9298C24.3136 4.85174 23.8135 5.35183 23.8135 5.96802C23.8135 6.5842 24.3136 7.0843 24.9298 7.0843Z" fill="black"/>
<path d="M18.9767 2.61919H11.7105C10.7237 2.61919 9.82177 3.17733 9.38121 4.05844L7.97172 6.87891C7.90772 7.00393 7.77972 7.0843 7.63833 7.0843H4.09302C1.83219 7.0843 0 8.91649 0 11.1773V26.061C0 27.1461 0.431628 28.1879 1.19814 28.9559C1.96614 29.7224 3.008 30.1541 4.09302 30.1541H27.907C28.992 30.1541 30.0339 29.7224 30.8019 28.9559C31.5684 28.1879 32 27.1461 32 26.061C32 21.526 32 13.4099 32 13.4099C32 12.7937 31.4999 12.2936 30.8837 12.2936C30.2675 12.2936 29.7674 12.7937 29.7674 13.4099V26.061C29.7674 26.5552 29.571 27.027 29.2227 27.3768C28.8729 27.725 28.4011 27.9215 27.907 27.9215H4.09302C3.59888 27.9215 3.12707 27.725 2.7773 27.3768C2.42902 27.027 2.23256 26.5552 2.23256 26.061V11.1773C2.23256 10.1503 3.06605 9.31686 4.09302 9.31686H7.63833C8.62512 9.31686 9.52707 8.75872 9.96763 7.8776L11.3771 5.05714C11.4411 4.93212 11.5691 4.85174 11.7105 4.85174H18.9767C19.5929 4.85174 20.093 4.35165 20.093 3.73547C20.093 3.11928 19.5929 2.61919 18.9767 2.61919Z" fill="black"/>
<path d="M16.0004 10.8052C12.0979 10.8052 8.93066 13.9725 8.93066 17.875C8.93066 21.7775 12.0979 24.9448 16.0004 24.9448C19.9029 24.9448 23.0702 21.7775 23.0702 17.875C23.0702 13.9725 19.9029 10.8052 16.0004 10.8052ZM16.0004 13.0378C18.6706 13.0378 20.8376 15.2049 20.8376 17.875C20.8376 20.5451 18.6706 22.7122 16.0004 22.7122C13.3303 22.7122 11.1632 20.5451 11.1632 17.875C11.1632 15.2049 13.3303 13.0378 16.0004 13.0378Z" fill="black"/>
</svg>
